<svg xmlns="http://www.w3.org/2000/svg" width="204" height="165" viewBox="0 0 204 165">
  <g id="Grupo_10705" data-name="Grupo 10705" transform="translate(-59 -270)">
    <rect id="Retângulo_3" data-name="Retângulo 3" width="204" height="165" transform="translate(59 270)" fill="#fdde50"/>
    <g id="Grupo_2" data-name="Grupo 2" transform="translate(-109.612 190.606)">
      <path id="Caminho_2" data-name="Caminho 2" d="M257.706,144.277c0,9.782-7.928-2.506-17.7-2.506s-17.71,12.288-17.71,2.506a17.707,17.707,0,1,1,35.413,0Z" transform="translate(3.472 0)" fill="#fff"/>
      <path id="Caminho_3" data-name="Caminho 3" d="M267.185,144.277c0,9.782-7.928-2.5-17.71-2.5s-17.71,12.282-17.71,2.5a17.71,17.71,0,0,1,35.419,0Z" transform="translate(51.769 0.031)" fill="#fff"/>
      <path id="Caminho_4" data-name="Caminho 4" d="M221.612,136.928a111.571,111.571,0,0,0,76.663,11.77c7.842-1.64,16.6-5.2,18.85-12.886" transform="translate(0 47.135)" fill="none" stroke="#fff" stroke-miterlimit="10" stroke-width="8"/>
    </g>
  </g>
</svg>
